<?xml version="1.0" encoding="utf-8"?>
<!-- Generator: Adobe Illustrator 23.0.6, SVG Export Plug-In . SVG Version: 6.00 Build 0)  -->
<svg version="1.1" id="Layer_1" xmlns="http://www.w3.org/2000/svg" xmlns:xlink="http://www.w3.org/1999/xlink" x="0px" y="0px"
	 width="112px" height="22px" viewBox="0 0 112 22" style="enable-background:new 0 0 112 22;" xml:space="preserve">
<style type="text/css">
	.st0{fill:#DD4B39;}
	.st1{fill:#FFFFFF;}
	.st2{fill:#475993;}
	.st3{fill:#F61C0D;}
	.st4{fill:#50ABF1;}
</style>
<g>
	<path class="st0" d="M80.9,0.5h-20v20h20V0.5z"/>
	<path class="st1" d="M78.9,9.7h-1.9V7.4h-0.9v2.3h-1.9v1.1h1.9v2.3h0.9v-2.3h1.9V9.7z"/>
	<path class="st1" d="M68.1,11.8H71c-0.4,1.2-1.6,2.1-2.9,2.1c-1.7,0-3.1-1.4-3.1-3.1c0-1.7,1.4-3.1,3.1-3.1c0.7,0,1.5,0.3,2,0.7
		l1.4-1.6c-0.9-0.8-2.1-1.3-3.4-1.3c-2.9,0-5.2,2.3-5.2,5.2c0,2.9,2.3,5.2,5.2,5.2c2.9,0,5.2-2.3,5.2-5.2v-1h-5.2V11.8z"/>
</g>
<g>
	<path class="st2" d="M50.9,0.5h-20v20h20V0.5z"/>
	<path class="st1" d="M40.4,20.5v-6.9h-1.7c-0.2,0-0.4-0.2-0.4-0.4V11c0-0.2,0.2-0.4,0.4-0.4h1.7V8.4c0-2.5,1.5-3.9,3.6-3.9h1.8
		c0.2,0,0.4,0.2,0.4,0.4v1.9c0,0.2-0.2,0.4-0.4,0.4h-1.1c-1.2,0-1.4,0.6-1.4,1.4v1.9h2.6c0.2,0,0.4,0.2,0.4,0.5L46,13.2
		c0,0.2-0.2,0.4-0.4,0.4h-2.3v6.9H40.4z"/>
</g>
<g>
	<path class="st3" d="M110.9,0.5h-20v20h20V0.5z"/>
	<path class="st1" d="M106.9,8.2c0-0.9-0.8-1.7-1.8-1.7h-8.4c-1,0-1.8,0.8-1.8,1.7v4.6c0,0.9,0.8,1.7,1.8,1.7h8.4
		c1,0,1.8-0.8,1.8-1.7V8.2z"/>
	<path class="st3" d="M99.7,12.5V8l3.6,2.2L99.7,12.5z"/>
</g>
<g>
	<path class="st4" d="M20.9,0.5h-20v20h20V0.5z"/>
	<path class="st1" d="M18.9,6c-0.6,0.2-1.2,0.4-1.8,0.5c0.6-0.4,1.1-1,1.4-1.7c-0.6,0.4-1.3,0.6-2,0.7c-1-1-2.5-1.3-3.7-0.6
		C11.6,5.6,11,7,11.3,8.3C8.8,8.2,6.5,7,5,5.1c-0.3,0.5-0.4,1-0.4,1.5c0,1.1,0.5,2,1.4,2.6c-0.5,0-1-0.1-1.4-0.4v0
		c0,1.5,1,2.7,2.5,3C6.6,12,6.1,12,5.6,11.9c0.4,1.3,1.6,2.1,2.9,2.1c-1.3,1-2.9,1.5-4.6,1.3c1.4,0.9,3,1.4,4.7,1.4
		c5.7,0,8.8-4.7,8.8-8.8c0-0.1,0-0.3,0-0.4C18,7.2,18.5,6.6,18.9,6L18.9,6z"/>
</g>
</svg>
