<?xml version="1.0" encoding="utf-8"?>
<!-- Generator: Adobe Illustrator 23.0.6, SVG Export Plug-In . SVG Version: 6.00 Build 0)  -->
<svg version="1.1" id="Layer_1" xmlns="http://www.w3.org/2000/svg" xmlns:xlink="http://www.w3.org/1999/xlink" x="0px" y="0px"
	 width="400px" height="238px" viewBox="0 0 400 238" style="enable-background:new 0 0 400 238;" xml:space="preserve">
<style type="text/css">
	.st0{display:none;fill:#3AA046;}
	.st1{fill-rule:evenodd;clip-rule:evenodd;fill:#F0F7FF;}
	.st2{fill:#C0D2E7;}
	.st3{fill:#AEE5F0;}
	.st4{fill:#254C64;}
	.st5{fill:#2C425D;}
	.st6{fill:#FFFFFF;}
	.st7{fill:#EA881D;}
	.st8{fill:#999999;}
	.st9{fill:#465A71;}
	.st10{fill-rule:evenodd;clip-rule:evenodd;fill:#AEE5F0;}
	.st11{fill:#254C64;stroke:#254C64;stroke-width:0.3;stroke-miterlimit:10;}
	.st12{fill:#CCCCCC;}
	.st13{fill-rule:evenodd;clip-rule:evenodd;fill:#999999;}
</style>
<rect class="st0" width="400" height="238"/>
<g id="bike">
	<path class="st1" d="M110.7,100.2c13.8,0,25,11.2,25,25s-11.2,25-25,25s-25-11.2-25-25S96.9,100.2,110.7,100.2z"/>
	<path class="st2" d="M134.5,113.5c-1.3,0-2.3-1.1-2.3-2.3c0-0.4-0.3-0.7-0.7-0.7s-0.7,0.3-0.7,0.7c0,1.3-1.1,2.3-2.3,2.3
		c-0.4,0-0.7,0.3-0.7,0.7c0,0.4,0.3,0.7,0.7,0.7c1.3,0,2.3,1.1,2.3,2.3c0,0.4,0.3,0.7,0.7,0.7s0.7-0.3,0.7-0.7
		c0-1.3,1.1-2.3,2.3-2.3c0.4,0,0.7-0.3,0.7-0.7S134.9,113.5,134.5,113.5z M131.4,115c-0.2-0.3-0.5-0.6-0.8-0.8
		c0.3-0.2,0.6-0.5,0.8-0.8c0.2,0.3,0.5,0.6,0.8,0.8C131.9,114.4,131.6,114.7,131.4,115z"/>
	<path class="st2" d="M93.1,113.5c-1.3,0-2.3-1.1-2.3-2.3c0-0.4-0.3-0.7-0.7-0.7s-0.7,0.3-0.7,0.7c0,1.3-1.1,2.3-2.3,2.3
		c-0.4,0-0.7,0.3-0.7,0.7c0,0.4,0.3,0.7,0.7,0.7c1.3,0,2.3,1.1,2.3,2.3c0,0.4,0.3,0.7,0.7,0.7s0.6-0.3,0.6-0.7
		c0-1.3,1.1-2.3,2.3-2.3c0.4,0,0.7-0.3,0.7-0.7C93.8,113.8,93.5,113.5,93.1,113.5z M90,115c-0.2-0.3-0.5-0.6-0.8-0.8
		c0.3-0.2,0.6-0.5,0.8-0.8c0.2,0.3,0.5,0.6,0.8,0.8C90.5,114.4,90.2,114.7,90,115z"/>
	<path class="st2" d="M114.5,104.3c-1.7,0-3.1-1.4-3.1-3.1c0-0.4-0.3-0.7-0.7-0.7c-0.4,0-0.7,0.3-0.7,0.7c0,1.7-1.4,3.1-3.1,3.1
		c-0.4,0-0.7,0.3-0.7,0.7s0.3,0.7,0.7,0.7c1.7,0,3.1,1.4,3.1,3.1c0,0.4,0.3,0.7,0.7,0.7c0.4,0,0.7-0.3,0.7-0.7
		c0-1.7,1.4-3.1,3.1-3.1c0.4,0,0.7-0.3,0.7-0.7S114.9,104.3,114.5,104.3z M110.7,106.4c-0.4-0.6-0.8-1-1.4-1.4
		c0.6-0.4,1-0.8,1.4-1.4c0.4,0.6,0.8,1,1.4,1.4C111.5,105.3,111.1,105.8,110.7,106.4z"/>
	<path class="st3" d="M100.4,130.1c0,0-4.3,5.2,0.6,11H87c0,0,0.6-10.4,4.9-11H100.4z"/>
	<path class="st4" d="M99.8,128.8c2.4,0,4.8,0,7.3,0c0.5,0,0.9,0.1,1.2,0.6c0.2,0.5,0,0.9-0.3,1.3c-0.7,0.8-1.3,1.6-1.4,2.7
		c-0.1,0.9,0.1,1.8,0.4,2.6c0.1,0.2,0.2,0.2,0.4,0.2c3.8,0,7.6,0,11.4,0c0.2,0,0.4-0.1,0.5-0.3c1.6-2,3.5-3.2,6.1-3.5
		c3.4-0.4,6.1,0.8,8.2,3.4c0.5,0.5,0.4,1.2-0.1,1.6c-0.5,0.3-1.1,0.2-1.5-0.4c-1.1-1.3-2.4-2.2-4.1-2.5c-2.4-0.5-4.6,0.1-6.3,1.9
		c-1.5,1.6-2.3,3.4-2,5.6c0.1,0.5-0.3,1-0.7,1.1c-0.4,0.1-1-0.1-1.2-0.5c-0.1-0.3-0.3-0.4-0.6-0.4c-4.5,0-9,0-13.4,0
		c-0.4,0-0.5,0.1-0.5,0.4c-0.2,1.3-0.6,2.6-1.5,3.6c-2.4,2.8-6.9,2.9-9.4,0.1c-0.9-1-1.5-2.1-1.5-3.5c0-0.5-0.2-0.7-0.7-0.7
		c-1,0.1-2.1,0-3.1,0c-0.6,0-1-0.5-0.9-1.1c0.4-2,0.6-4.1,1.2-6c0.5-1.6,1-3.1,2-4.4c1-1.3,2.3-2.1,4-2
		C95.3,128.8,97.5,128.8,99.8,128.8z M105.2,130.8c-0.1,0-0.2,0-0.3,0c-4.1,0-8.2,0-12.4,0c-0.3,0-0.5,0.1-0.7,0.2
		c-1.2,0.6-1.8,1.7-2.3,2.9c-0.8,1.9-1.2,4-1.6,6c-0.1,0.4,0.1,0.5,0.4,0.5c9.5,0,19.1,0,28.6,0c0.3,0,0.5-0.1,0.5-0.4
		c0-0.4,0.1-0.8,0.2-1.1c0.2-0.5,0-0.5-0.4-0.5c-3.6,0-7.2,0-10.8,0c-0.6,0-1-0.2-1.3-0.8c-0.1-0.1-0.1-0.2-0.2-0.4
		c-0.6-1.4-0.9-2.8-0.6-4.3C104.6,132.1,105,131.5,105.2,130.8z M96.7,142.6c-1.1,0-2.3,0-3.4,0c-0.9,0-0.9,0-0.6,0.9
		c0.5,1.7,2.2,3.2,4.6,2.9c1.7-0.2,3.2-1.4,3.6-3.5c0.1-0.4-0.1-0.4-0.4-0.4C99.3,142.6,98,142.6,96.7,142.6z"/>
	<path class="st4" d="M126.6,148.2c-3.4,0.1-6.3-2.7-6.3-6.3c0-3.5,2.8-6.5,6.7-6.2c3.2,0.2,5.9,2.8,5.9,6.3
		C132.9,145.6,130,148.3,126.6,148.2z M130.9,142c0-2.3-1.9-4.2-4.1-4.2c-2.4-0.1-4.4,2-4.4,4.2c0,2.3,1.9,4.3,4.2,4.2
		C129.2,146.2,130.9,144.3,130.9,142z"/>
	<path class="st4" d="M116.9,119.2c0.8,0,1.6,0,2.3,0c0.5,0,0.8,0.2,1,0.7c1.6,3.6,3.3,7.2,5,10.9c0.1,0.2,0.2,0.4,0.2,0.5
		c0.1,0.2,0,0.3-0.2,0.3c-0.4,0-0.8,0.1-1.2,0.2c-0.4,0.1-0.5,0-0.7-0.3c-1-2.3-2.1-4.5-3.1-6.8c-0.5-1-1-2-1.4-3.1
		c-0.1-0.3-0.3-0.4-0.6-0.4c-1.2,0-2.4,0-3.6,0c-0.7,0-1.1-0.4-1.1-1s0.4-1,1.1-1C115.4,119.2,116.1,119.2,116.9,119.2z"/>
	<path class="st4" d="M99.4,127.9c-1.8,0-3.6,0-5.4,0c-0.4,0-0.7-0.2-0.9-0.5c-0.2-0.4-0.1-0.8,0.2-1.1c0.3-0.3,0.6-0.3,0.9-0.3
		c2.8,0,5.6,0,8.4,0c0.7,0,1.3,0,2,0s1.1,0.3,1.1,1c0,0.6-0.3,1-1.1,1C102.9,127.9,101.2,127.9,99.4,127.9z"/>
	<path class="st4" d="M125.1,124.4c0,0.1,0,0.2-0.1,0.2h-0.1c-0.5,0.2-0.9,0.8-1.4,0.7c-0.5-0.1-0.6-0.8-0.9-1.2
		c-0.3-0.5-0.5-1-0.8-1.5c-0.1-0.2-0.2-0.3,0.1-0.4c0.4-0.2,0.8-0.5,1.2-0.7c0.2-0.1,0.3-0.1,0.4,0.1c0.5,0.9,1,1.8,1.5,2.7
		C125,124.3,125.1,124.4,125.1,124.4z"/>
</g>
<path id="call" class="st5" d="M90.7,176.6v2.8c0,0.4-0.3,0.7-0.7,0.8c-0.3,0-0.6,0-0.8,0c-6.9,0-12.4-5.6-12.4-12.4
	c0-0.2,0-0.5,0-0.8c0-0.4,0.4-0.7,0.8-0.7h2.8c0.2,0,0.4,0.2,0.4,0.4s0,0.3,0,0.4c0.2,1.1,0.5,2.1,0.9,3.1c0.1,0.2,0,0.3-0.1,0.4
	l-1.7,1.2c1,2.4,2.9,4.3,5.3,5.3l1.2-1.7c0.1-0.1,0.3-0.2,0.4-0.1c1,0.5,2,0.8,3.1,0.9c0.1,0,0.3,0,0.4,0
	C90.5,176.2,90.7,176.4,90.7,176.6L90.7,176.6z"/>
<g id="car">
	<path class="st1" d="M348.7,20.2c13.8,0,25,11.2,25,25s-11.2,25-25,25s-25-11.2-25-25S334.9,20.2,348.7,20.2z"/>
	<path class="st2" d="M372.5,33.5c-1.3,0-2.3-1.1-2.3-2.3c0-0.4-0.3-0.7-0.7-0.7c-0.4,0-0.7,0.3-0.7,0.7c0,1.3-1.1,2.3-2.3,2.3
		c-0.4,0-0.7,0.3-0.7,0.7s0.3,0.7,0.7,0.7c1.3,0,2.3,1.1,2.3,2.3c0,0.4,0.3,0.7,0.7,0.7c0.4,0,0.7-0.3,0.7-0.7
		c0-1.3,1.1-2.3,2.3-2.3c0.4,0,0.7-0.3,0.7-0.7S372.9,33.5,372.5,33.5z M369.4,35c-0.2-0.3-0.5-0.6-0.8-0.8c0.3-0.2,0.6-0.5,0.8-0.8
		c0.2,0.3,0.5,0.6,0.8,0.8C369.9,34.4,369.6,34.7,369.4,35z"/>
	<path class="st2" d="M331.1,33.5c-1.3,0-2.3-1.1-2.3-2.3c0-0.4-0.3-0.7-0.7-0.7s-0.7,0.3-0.7,0.7c0,1.3-1.1,2.3-2.3,2.3
		c-0.4,0-0.7,0.3-0.7,0.7s0.3,0.7,0.7,0.7c1.3,0,2.3,1.1,2.3,2.3c0,0.4,0.3,0.7,0.7,0.7s0.6-0.3,0.6-0.7c0-1.3,1.1-2.3,2.3-2.3
		c0.4,0,0.7-0.3,0.7-0.7C331.8,33.8,331.5,33.5,331.1,33.5z M328,35c-0.2-0.3-0.5-0.6-0.8-0.8c0.3-0.2,0.6-0.5,0.8-0.8
		c0.2,0.3,0.5,0.6,0.8,0.8C328.5,34.4,328.2,34.7,328,35z"/>
	<path class="st2" d="M352.5,24.3c-1.7,0-3.1-1.4-3.1-3.1c0-0.4-0.3-0.7-0.7-0.7c-0.4,0-0.7,0.3-0.7,0.7c0,1.7-1.4,3.1-3.1,3.1
		c-0.4,0-0.7,0.3-0.7,0.7s0.3,0.7,0.7,0.7c1.7,0,3.1,1.4,3.1,3.1c0,0.4,0.3,0.7,0.7,0.7c0.4,0,0.7-0.3,0.7-0.7
		c0-1.7,1.4-3.1,3.1-3.1c0.4,0,0.7-0.3,0.7-0.7S352.9,24.3,352.5,24.3z M348.7,26.4c-0.4-0.6-0.8-1-1.4-1.4c0.6-0.4,1-0.8,1.4-1.4
		c0.4,0.6,0.8,1,1.4,1.4C349.5,25.3,349.1,25.8,348.7,26.4z"/>
	<path class="st3" d="M342,35.6h16c0,0,2.7-0.3,5.7,3.7c0,0,2.3,3.3,2.3,4.7h-29.3C336.7,43.9,339,35.6,342,35.6z"/>
	<path class="st5" d="M348.8,63.3c-4.2,0-8.3,0-12.5,0c-1.1,0-1.4,0.2-1.4,1.4c0,2.9-0.5,3.4-3.4,3.4c-4.6,0-4.6,0-4.7-4.6
		c0-1.2-0.2-2.4-0.7-3.5c-0.9-2.1-1-4.4-0.3-6.7c0.4-1.2,0.8-2.3,1.3-3.4c0.3-0.8,1.1-1.7,1-2.4c-0.1-0.5-1.3-0.9-1.9-1.4
		c-1.1-0.7-1.8-1.7-1.5-3.1c0.3-1.4,1.5-1.7,2.7-1.9c0.1,0,0.1,0,0.2,0c2.7,0.7,3.8-1,5-3c1.7-2.6,4.2-3.9,7.4-3.8
		c5.6,0.1,11.2,0.2,16.8,0c3.4-0.1,5.9,1.1,7.6,3.8c1.3,2.1,2.4,4,5.5,3.3c1.1-0.2,2.4,0.4,2.8,1.9c0.3,1.6-0.6,2.7-1.8,3.2
		c-1.5,0.7-1.5,1.4-0.8,2.7c1.6,3.2,2.4,6.7,1.2,10.2c-0.7,2.1-1.2,4.2-1,6.5c0,0.3,0,0.6-0.2,0.8c-1.3,2.3-3.6,1.2-5.4,1.3
		c-1.3,0.1-1.8-1-1.9-2.3c-0.2-2.4-0.2-2.4-2.5-2.4C356.3,63.3,352.6,63.3,348.8,63.3z M348.8,48.2c-5.1,0-10.1,0-15.1,0
		c-3.5,0-3.5,0-4.9,3.4c-1,2.4-1.8,4.9-0.6,7.4c0.8,1.7,1,3.4,0.9,5.1c-0.1,1.4,0.3,1.9,1.8,1.9c1.7,0,2.4-0.4,2.1-2.2
		c-0.1-0.4,0.1-0.9,0-1.3c-0.1-1,0.3-1.3,1.3-1.3c1.9,0.1,3.9,0,5.8,0c7.7,0,15.4,0,23.1,0c1.3,0,1.8,0.3,1.7,1.7
		c-0.1,0.7,0,1.4,0,2.2c0,1.2,0.9,0.9,1.5,0.9c0.6-0.1,1.8,0.6,1.8-0.8c0-2.2,0.3-4.2,1.1-6.4c1.2-3.1,0-6.2-1.2-9.2
		c-0.5-1.1-1.1-1.5-2.2-1.5C360,48.2,354.4,48.2,348.8,48.2z M348.4,46.1L348.4,46.1c5.4,0,10.8,0,16.3,0c0.5,0,1.5,0.3,1-0.9
		c-1-2.6-2.2-5.1-4.2-7.1c-1.1-1.1-2.4-1.7-4-1.7c-5.6,0.1-11.1,0.2-16.6,0c-3.8-0.2-6.2,1.6-7.9,4.8c-0.5,1-1,2.1-1.4,3.2
		c-0.7,1.8-0.7,1.8,1.2,1.8C338,46.1,343.2,46.1,348.4,46.1z M369.1,43.3c-0.5,0.2-1.5-0.4-1.4,0.7c0,0.4,0.1,1.3,0.8,1.2
		c0.8-0.1,1.8-0.5,1.9-1.3C370.5,43.3,369.6,43.4,369.1,43.3z M326.7,43.5c0.6,1,1.4,1.6,2.3,1.5c0.4,0,0.8-1.3,0.5-1.5
		C328.8,42.8,327.8,43,326.7,43.5z"/>
	<path class="st5" d="M362.7,49.9c2.3,0,4,1.7,4,4c0,2.2-1.7,3.9-3.8,4c-2.2,0.1-4-1.7-4.1-3.9C358.8,51.7,360.5,50,362.7,49.9z
		 M364.6,53.7c-0.2-1-0.8-1.7-2-1.7c-1.1,0.1-1.8,0.8-1.7,2c0.1,1.1,0.8,1.7,1.9,1.7C363.9,55.8,364.6,55.1,364.6,53.7z"/>
	<path class="st5" d="M334.4,49.9c2.2,0,4,1.9,4,4s-1.8,3.9-3.9,4c-2.2,0-4.1-1.8-4.1-4C330.4,51.8,332.2,49.9,334.4,49.9z
		 M334.4,52c-1.1,0.1-1.9,0.7-2,1.8s0.7,1.9,1.8,2c1.1,0.1,1.9-0.7,2-1.8S335.6,52.2,334.4,52z"/>
	<path class="st5" d="M348.8,53.9c2,0,4,0,6,0c0.8,0,1.4,0,1.4,1.1c0,1.2-0.7,1-1.4,1c-4.2,0-8.1,0-12.3,0c-0.8,0-1.2-0.1-1.2-1.1
		s0.5-1,1.3-1C344.6,53.9,346.7,53.9,348.8,53.9z"/>
</g>
<path id="cta" class="st6" d="M61.2,170.2v-0.1c0-0.2-0.1-0.4-0.3-0.6l-3.3-3.1c-0.2-0.2-0.4-0.3-0.6-0.3s-0.5,0.1-0.6,0.3
	c-0.2,0.2-0.3,0.4-0.3,0.6s0.1,0.4,0.3,0.6l1.7,1.7h-11c-0.5,0-0.9,0.4-0.9,0.9s0.4,0.9,0.9,0.9h11l-1.7,1.7c-0.3,0.3-0.3,0.9,0,1.2
	s0.9,0.3,1.3,0l3.3-3.1c0,0,0-0.1,0.1-0.1c0-0.1,0.1-0.1,0.1-0.2C61.2,170.4,61.2,170.3,61.2,170.2z"/>
<path id="cta_hover" class="st7" d="M357.2,104.2L357.2,104.2c0-0.3-0.1-0.5-0.3-0.7l-3.3-3.1c-0.2-0.2-0.4-0.3-0.6-0.3
	s-0.5,0.1-0.6,0.3c-0.2,0.2-0.3,0.4-0.3,0.6s0.1,0.4,0.3,0.6l1.7,1.7h-11c-0.5,0-0.9,0.4-0.9,0.9s0.4,0.9,0.9,0.9h11l-1.7,1.7
	c-0.3,0.3-0.3,0.9,0,1.2c0.3,0.3,0.9,0.3,1.3,0l3.3-3.1c0,0,0-0.1,0.1-0.1c0-0.1,0.1-0.1,0.1-0.2
	C357.2,104.4,357.2,104.3,357.2,104.2z"/>
<path id="down_arrow" class="st8" d="M24.7,171l3.9-3.9l1.1,1.1l-5,5l-5-5l1.1-1.1L24.7,171z"/>
<path id="finance" class="st9" d="M206,80.3c-1.9,0-3.7,0-5.6,0c-3.9-0.1-7.7,0.1-11.6,0c-2.1,0-4.2-0.1-6.3-0.8
	c-3.3-1.1-5.8-3.3-7.7-6.2c-1.6-2.5-2.4-5.3-2.2-8.3c0.1-2.3,0.8-4.5,1.7-6.6c1.6-3.7,3.7-7.1,6-10.3c2.2-3.1,4.6-6.1,7.2-8.8
	c0.7-0.7,1.4-1.3,2.1-1.9c0.5-0.4,0.6-0.5,0.3-1.1c-1.6-4-3.2-8-4.8-12c-0.3-0.7-0.5-1.4-0.3-2.2c0.4-1.4,1.9-2.1,3.3-1.5
	c1.8,0.8,3.7,1.5,5.7,2.1c4.5,1.3,8.8,0.8,13.2-0.6c1.2-0.4,2.3-0.8,3.4-1.4c1-0.5,2-0.4,2.9,0.3c0.8,0.7,1,1.6,0.6,2.7
	c-0.6,1.7-1.3,3.3-2,4.9c-1.1,2.6-2.1,5.3-3.2,7.9c-0.1,0.3-0.2,0.4,0.1,0.7c2.6,2,4.7,4.4,6.8,6.9c3.1,3.8,5.8,7.8,8,12.3
	c1,2.1,2,4.3,2.4,6.6c0.9,4.9-0.4,9.2-3.8,12.9c-3,3.1-6.7,4.5-11,4.5C209.6,80.3,207.8,80.3,206,80.3z M199.2,78.5
	c4.1,0,8.2,0,12.3,0c1.6,0,3.1-0.2,4.6-0.7c6.1-2.2,9.6-8.6,8.2-15c-0.5-2.4-1.6-4.5-2.7-6.6c-2.5-4.7-5.5-8.9-8.9-12.9
	c-1.5-1.8-3.1-3.5-5-4.9c-0.7-0.5-1.5-0.9-2.4-0.9c-0.8,0-1.7,0-2.5,0c-2.4,0-4.7,0.1-7.1,0c-1,0-2,0-2.9,0.3
	c-1.3,0.4-2.2,1.3-3.2,2.2c-4.1,4.1-7.6,8.6-10.5,13.6c-1.4,2.4-2.7,4.8-3.6,7.4c-0.8,2.4-1.2,4.9-0.6,7.5c1.2,5.8,6.4,10,12.5,10
	C191.3,78.5,195.3,78.5,199.2,78.5z M186,21.5c0.1,0.2,0.2,0.4,0.3,0.6c1.7,4.3,3.4,8.5,5,12.8c0.3,0.8,0.4,0.8,1.2,0.8
	c4.6,0,9.2,0,13.9,0c0.7,0,0.9-0.1,1.2-0.8c1.7-4.3,3.4-8.5,5-12.8c0-0.1,0.2-0.2,0.1-0.4c-0.1,0.1-0.3,0.1-0.4,0.2
	c-1.7,0.7-3.4,1.5-5.2,2.1c-3.6,1.2-7.2,1.6-10.9,1c-3.5-0.7-6.6-1.8-9.7-3.4C186.4,21.5,186.3,21.4,186,21.5z"/>
<path class="st9" d="M200.9,49.5c0,0.2,0.2,0.3,0.2,0.3c1.1,0.9,1.8,2.1,2.1,3.5c0.2,0.8,0.2,0.9,1.1,0.8c0.7,0,1.5,0,2.2,0
	c0.1,0,0.2,0,0.4,0.1c0.4,0.1,0.7,0.4,0.6,0.8c0,0.4-0.3,0.7-0.8,0.7c-0.7,0-1.4,0-2.1,0c-1.2,0-1.2,0-1.5,1.1c-0.8,3-3.9,5.3-7,5.3
	c-0.6,0-1.3,0-2,0c0.3,0.4,0.6,0.7,0.9,0.9c2.6,2.5,5.3,4.9,7.9,7.3c0.3,0.2,0.5,0.5,0.5,0.9c0,0.3-0.2,0.6-0.5,0.7
	c-0.3,0.2-0.7,0.1-0.9-0.2c-0.8-0.8-1.7-1.5-2.5-2.3c-2.5-2.3-4.9-4.6-7.4-6.9c-0.2-0.2-0.4-0.4-0.6-0.6c-0.2-0.3-0.4-0.5-0.2-0.9
	s0.5-0.5,0.8-0.5c1.2,0,2.4,0,3.6,0c2.7,0,5.3-2,6-4.6c0.1-0.3,0-0.4-0.3-0.4c-3,0-6-0.1-9,0c-0.3,0-0.6,0-0.8-0.1
	c-0.3-0.2-0.5-0.4-0.4-0.8c0.1-0.4,0.3-0.6,0.7-0.7c0.4,0,0.9,0,1.3,0c2.6,0,5.3,0,7.9,0c0.5,0,0.6-0.1,0.5-0.6
	c-0.3-1.2-0.9-2.2-1.9-2.9c-1.1-0.8-2.3-1.3-3.7-1.3c-1.2,0-2.4,0-3.6,0c-0.2,0-0.4,0-0.6-0.1c-0.4-0.1-0.7-0.5-0.6-0.8
	c0.1-0.4,0.4-0.7,0.9-0.7c3.2,0,6.3,0,9.5,0c1.6,0,3.2,0,4.8,0c0.3,0,0.6,0,0.8,0.1c0.4,0.1,0.5,0.4,0.5,0.8c0,0.4-0.2,0.6-0.6,0.7
	c-0.2,0-0.4,0-0.5,0C204.6,49.5,202.8,49.5,200.9,49.5z"/>
<g id="insurance">
	<path class="st5" d="M249.5,39.2c-1.1,0-2,0-2.8,0c-3.1-0.1-5-3.3-3.6-6c0.5-1.2,1.5-1.7,2.7-2c1.3-0.2,2.5-0.2,3.8,0
		c1.1,0.2,2,0.9,2.7,1.8c0.2-0.7,0.4-1.3,0.7-1.8c0.7-2.1,1.2-4.1,2-6.2c0.3-1,0.9-1.8,1.5-2.7c1.4-1.8,3.5-2.8,5.8-2.8
		c8.4,0,16.7,0,25.1,0c3.9,0,6.5,1.8,7.8,5.5c0.4,1.3,0.9,2.6,1.4,4c0.4,1.3,0.9,2.6,1.3,3.9h0.1c1.4-1.6,3.3-2,5.3-1.7
		c0.4,0,1,0.1,1.4,0.2c1.8,0.4,3,2,2.9,4c0,1.7-1.3,3.3-3.1,3.6c-1.1,0.2-2.2,0.1-3.1,0.1c-0.2,0-0.4,0-0.9,0
		c1.2,1.1,1.8,2.4,2.7,3.6c0.9,1.1,1.8,1.7,3.3,1.8c0.8,0,1.1,0.4,1.1,1.2c0.1,1.3,0.1,2.7,0.1,4c0,2.6,0.1,5.1-0.2,7.7
		c-0.7,5.8-3.6,9.8-8.9,12.2c-0.1,0-0.2,0.1-0.2,0.1c-1.5,1-2.9,0.8-4.5,0.1c-3.5-1.6-6.1-4.1-7.8-7.5c-0.4-0.8-1-1.2-2-1.1
		c-0.9,0.1-1.6-0.1-2.2-0.9c-0.3-0.3-0.7-0.3-1.1-0.3c-3.4,0-6.7,0-10.1,0c-0.2,0-0.5,0-0.8,0c-0.7,0-1.3,0-2,0.5
		c-0.5,0.5-1.4,0.7-2.2,0.7c-0.8,0-1.6,0-2.4-0.1c-1-0.1-1.3,0.2-1.3,1.3c0,1.5,0.1,3.1,0,4.7c-0.1,2-1.4,3.3-3.5,3.4
		c-1.8,0.1-3.7,0.1-5.4,0c-2.2-0.1-3.5-1.4-3.6-3.6c-0.1-1.5,0-2.9,0-4.5c0-0.9-0.3-1.4-1.1-1.8c-1.6-0.9-2.4-2.2-2.4-4
		c0-3.7,0-7.5,0-11.2c0-1.2,0.4-2.2,1.1-3.1c0.5-0.8,1.1-1.5,1.7-2.3C249,39.6,249.3,39.4,249.5,39.2z M300.5,42.7
		c0-0.1-0.1-0.2-0.1-0.2c-1.8-1.6-2.9-3.7-3.7-6c-1.2-3.5-2.3-7.1-3.5-10.5c-0.9-2.5-2.6-3.9-5.2-4.2c-1.5-0.1-3-0.1-4.6-0.1
		c-6.8,0-13.8,0-20.6,0c-0.5,0-1,0-1.5,0.2c-2.2,0.5-3.5,2-4.2,4c-1,2.7-1.7,5.5-2.6,8.3c-1,3.4-2.5,6.4-5,8.9
		c-0.8,0.8-1.1,1.7-1.1,2.8c0,3.6,0,7.2,0,10.9c0,1.4,0.9,2.3,2.2,2.5c0.2,0,0.5,0,0.8,0c4.8,0,9.7,0,14.4,0c0.4,0,0.9,0,1.2-0.3
		c0.5-0.7,1.4-0.9,2.2-0.9c3.9,0,7.8,0,11.7,0c1,0,2,0.1,2.7,1c0.2,0.3,0.5,0.3,1,0.1c0.3-0.1,0.2-0.5,0.2-0.8
		c-0.1-0.9-0.2-1.6-0.2-2.5c0-3.1,0-6.4,0-9.6c0-1.1,0.2-1.4,1.3-1.7c1.5-0.4,3.1-0.9,4.7-1.4c0.1,0,0.3,0,0.3-0.2s-0.2-0.2-0.3-0.2
		c-0.2,0-0.4,0-0.7,0c-9.6,0-19,0-28.6,0c-0.7,0-1.2,0-1.8-0.1c-2-0.2-3.3-1.3-3.7-3.1c-0.2-1.1-0.1-2.1,0.3-3
		c1.2-3.3,2.4-6.4,3.6-9.7c0.7-1.8,1.6-2.5,3.6-2.5c7.9,0,16,0,23.9,0c2,0,2.9,0.8,3.6,2.5c1.2,3.1,2.4,6.4,3.6,9.6
		c0.2,0.5,0.3,1.2,0.4,1.8c0.1,1.4-0.4,2.5-1.4,3.5c-0.2,0.2-0.7,0.4-0.7,0.9C295.3,41.4,297.9,41.9,300.5,42.7z M275,40.5
		c0.9,0,1.6,0,2.5,0c4.1,0,8.3,0,12.3,0c2.4,0,3.3-1.3,2.4-3.5c-0.7-1.6-1.2-3.4-1.8-5c-0.5-1.5-1.1-2.9-1.6-4.5
		c-0.3-1-1.1-1.3-2.1-1.3c-7.6,0-15.2,0-22.8,0c-1.6,0-2.2,0.3-2.7,2c-0.7,1.7-1.3,3.6-2,5.3c-0.5,1.4-1.1,2.8-1.4,4.2
		s0.4,2.5,1.8,2.7c0.3,0,0.7,0,1,0C265.2,40.5,270.1,40.5,275,40.5z M305.4,52.1c0-1.4,0-2.7,0-4.1c0-1.2-0.2-1.5-1.4-1.8
		c-2.2-0.7-4.3-1.2-6.5-1.8c-1-0.3-2-0.3-3,0c-2.3,0.7-4.6,1.3-6.9,2.1c-1,0.3-1.1,0.4-1.1,1.5c0,2.6,0,5.2,0,7.9
		c0.1,5.4,2.5,9.6,7.3,12.2c2.2,1.2,2.2,1.2,4.3,0c4.2-2.3,6.6-5.8,7.3-10.4C305.5,55.6,305.4,53.9,305.4,52.1z M255.4,61.2
		c-0.9,0-1.8,0-2.7,0c-0.8,0-1.1,0.3-1.1,1.1c0,1.4,0,2.8,0,4.3c0,1.2,0.5,1.7,1.7,1.8c1.6,0.1,3.3,0.1,4.9,0c1.3,0,1.7-0.5,1.8-1.8
		c0.1-1.5,0-2.9,0-4.5c0-0.8-0.4-1.1-1.2-1C257.6,61.3,256.5,61.2,255.4,61.2z M248.1,33.2c-0.9,0-1.4,0-2,0.1
		c-0.9,0.2-1.4,1-1.4,1.8s0.5,1.5,1.4,1.7c1.1,0.3,2.2,0.2,3.3,0c0.9-0.2,1.3-0.8,1.3-1.7s-0.4-1.6-1.3-1.7
		C248.8,33.3,248.3,33.2,248.1,33.2z M302.1,37c0.8,0,1.6,0,2.4-0.3c0.7-0.3,0.9-0.9,0.9-1.6c0-0.7-0.2-1.1-0.9-1.3
		c-1.3-0.4-2.7-0.5-4-0.1c-0.9,0.3-1.3,1-1.2,2c0.1,0.9,0.8,1.4,1.6,1.5C301.4,37,301.8,37,302.1,37z"/>
	<path class="st5" d="M257.5,55.5c-1.1,0-2.2,0-3.3,0c-2.2-0.1-3.5-1.4-3.5-3.6c0-1.1,0-2.1,0.2-3c0.4-1.5,1.4-2.3,3-2.4
		c1.7-0.1,3.5,0.2,5.2,0.5c0.7,0.1,1.3,0.2,2.1,0.3c2.4,0.4,3.3,1.5,3.4,3.9c0,0.5,0,1.2-0.1,1.7c-0.3,1.7-2,2.8-3.9,2.7
		C259.5,55.5,258.5,55.5,257.5,55.5z M257.9,53.4c1,0,2,0,3,0c0.9,0,1.3-0.4,1.3-1.3c0-0.4,0-0.9,0-1.3c0-0.9-0.4-1.3-1.3-1.4
		c-1.3-0.2-2.7-0.4-4-0.5c-1-0.1-1.8-0.3-2.8-0.3c-0.9,0-1.2,0.3-1.4,1.2c-0.1,0.8-0.1,1.4-0.1,2.2c0.1,1,0.4,1.3,1.4,1.4
		C255.4,53.4,256.6,53.4,257.9,53.4z"/>
	<path class="st5" d="M291.9,55.2c0.7,0,1,0.4,1.3,0.9c0.2,0.3,0.4,0.7,0.8,0.9c0.7,0.5,1.1,0.5,1.6,0c1.3-1.3,2.6-2.6,3.9-4
		c0.1-0.1,0.3-0.2,0.4-0.4c0.4-0.3,1.1-0.4,1.4,0c0.3,0.3,0.4,1,0.1,1.4c-0.1,0.1-0.2,0.2-0.3,0.3c-1.7,1.7-3.5,3.5-5.3,5.3
		c-0.8,0.8-1.3,0.8-2.1,0.1c-0.9-0.9-1.7-1.7-2.6-2.6c-0.5-0.5-0.5-1.2,0-1.6C291.4,55.2,291.7,55.2,291.9,55.2z"/>
</g>
<path id="link" class="st8" d="M323.5,105.2l-3.9-3.9l1.1-1.1l5,5l-5,5l-1.1-1.1L323.5,105.2z"/>
<path id="link_hover" class="st7" d="M301.5,105.2l-3.9-3.9l1.1-1.1l5,5l-5,5l-1.1-1.1L301.5,105.2z"/>
<g id="next_arrow">
	<path class="st6" d="M157.7,126.6l-4.4-7v7h-1.8v-10h1.8l4.4,7v-7h1.8v10H157.7z M169.4,125.2v1.4h-5.2h-1.3v-10h1.8h4.7v1.4h-4.7
		v2.7h4.1v1.4h-4.1v3L169.4,125.2L169.4,125.2z M177.7,116.7h2l-3,4.9l3.1,5h-2.1l-2.1-3.6l-2.1,3.6h-2.1l3.1-5l-3-4.9h2l2.1,3.6
		L177.7,116.7z M189.7,118.1h-3.1v8.5h-1.8v-8.5h-3.1v-1.4h4.8h3.1v1.4H189.7z"/>
	<path class="st6" d="M207.4,111.7c0.4-0.4,0.4-1.1,0-1.6l-10-10c-0.4-0.4-1.1-0.4-1.6,0c-0.4,0.4-0.4,1.1,0,1.6l8,8h-36.6
		c-0.6,0-1.1,0.5-1.1,1.1s0.5,1.1,1.1,1.1h36.7l-8,8c-0.4,0.4-0.4,1.1,0,1.6c0.4,0.4,1.2,0.4,1.6,0L207.4,111.7z"/>
	<path class="st6" d="M152.6,109.8h9.6c0.6,0,1.1,0.5,1.1,1.1s-0.5,1.1-1.1,1.1h-9.6c-0.6,0-1.1-0.5-1.1-1.1S152,109.8,152.6,109.8z
		"/>
</g>
<g id="prev_arrow">
	<path class="st6" d="M224.9,109.9c-0.4,0.4-0.4,1.1,0,1.6l10,10c0.4,0.4,1.1,0.4,1.6,0c0.4-0.4,0.4-1.1,0-1.6l-8-8h36.6
		c0.6,0,1.1-0.5,1.1-1.1s-0.5-1.1-1.1-1.1h-36.7l8-8c0.4-0.4,0.4-1.1,0-1.6c-0.4-0.4-1.2-0.4-1.6,0L224.9,109.9z"/>
	<path class="st6" d="M246.4,116.7c0.8,0,1.4,0.1,1.9,0.4c0.6,0.3,1,0.6,1.3,1.1s0.4,1,0.4,1.6s-0.1,1.2-0.4,1.7
		c-0.3,0.5-0.7,0.8-1.2,1.1c-0.5,0.2-1.2,0.4-2,0.4h-2.1v3.7h-1.8v-10C242.5,116.7,246.4,116.7,246.4,116.7z M246.4,121.5
		c0.6,0,1.1-0.1,1.4-0.4c0.3-0.3,0.5-0.7,0.5-1.2c0-0.3-0.1-0.6-0.2-0.9c-0.1-0.3-0.3-0.5-0.6-0.6c-0.3-0.2-0.6-0.2-1-0.2h-2.1v3.4
		h2L246.4,121.5L246.4,121.5z M260.5,126.5L260.5,126.5l-1.9,0.1l-2-3.8h-1.9v3.8H253v-10h3.5c1.1,0,2,0.3,2.7,0.8
		c0.6,0.5,0.9,1.3,0.9,2.2c0,0.7-0.2,1.2-0.5,1.7s-0.8,0.8-1.3,1.1L260.5,126.5z M254.8,121.4h1.8c0.6,0,1-0.1,1.4-0.4
		c0.3-0.3,0.5-0.7,0.5-1.2s-0.2-0.9-0.5-1.2c-0.3-0.3-0.8-0.4-1.4-0.4h-1.8V121.4z M269.7,125.2v1.4h-5.2h-1.3v-10h1.8h4.7v1.4H265
		v2.7h4.1v1.4H265v3L269.7,125.2L269.7,125.2z M280.6,116.7l-3.6,10h-1.3h-0.4l-3.6-10h1.9l2.5,7.7l2.5-7.7H280.6z"/>
	<path class="st6" d="M279.7,111.8h-9.6c-0.6,0-1.1-0.5-1.1-1.1s0.5-1.1,1.1-1.1h9.6c0.6,0,1.1,0.5,1.1,1.1S280.3,111.8,279.7,111.8
		z"/>
</g>
<g id="service">
	<path class="st5" d="M95.7,49.2c0-3.5,0-7,0-10.6c0-1.3,0.2-2.6,0.8-3.8c1.4-3.1,2.8-6.1,4.3-9.1c0.5-1.2,1.5-1.8,2.8-1.8
		c1.1,0,2.1,0,3.2,0c1,0,1.7,0.3,2.3,1.1c1.3,1.5,2.5,3,3.8,4.5c0.2,0.3,0.5,0.7,0.5,1c0,1.4,0.1,2.8-0.1,4.1
		c-0.2,1.4-0.9,2.6-1.9,3.7c-0.4,0.4-0.7,0.7-1.1,1.1c-0.5,0.5-0.7,1-0.7,1.7c0,5.5,0,11,0,16.5c0,0.3,0.1,0.5,0.3,0.8
		c0.7,0.7,1.4,1.3,2,2c1,1.3,1.5,2.7,1.6,4.3c0,0.8,0,1.7,0,2.6c0,0.7-0.2,1.2-0.6,1.7c-1.2,1.6-2.4,3.1-3.6,4.6
		c-0.7,0.8-1.4,1.2-2.5,1.2c-1.2-0.1-2.4,0.1-3.6-0.1c-1-0.1-1.6-0.7-2-1.6c-1.1-2.4-2.3-4.7-3.4-7.1c-0.4-0.8-0.8-1.7-1.2-2.5
		c-0.6-1.1-0.8-2.2-0.8-3.3C95.7,56.5,95.7,52.9,95.7,49.2z M97.5,49.3c0,3.7,0,7.3,0,10.9c0,0.5,0.1,1,0.2,1.4
		c1.6,3.5,3.2,7.1,4.8,10.7c0.2,0.4,0.5,0.5,0.8,0.5c1.2,0,2.4,0,3.6,0c0.2,0,0.5-0.1,0.7-0.3c1.3-1.5,2.6-3.1,3.8-4.6
		c0.1-0.1,0.2-0.2,0.2-0.4c0-0.9,0-1.9,0-2.8c-0.1-1.1-0.3-2.1-1-2.9c-0.6-0.7-1.3-1.3-1.9-1.9c-0.2-0.2-0.3-0.1-0.4-0.1
		c-0.4,0.2-0.8,0.4-1.1,0.6s-0.7,0.1-0.9-0.2c-0.5-0.5-0.3-1.3,0.3-1.6c0.4-0.2,0.7-0.4,1.1-0.5c0.2-0.1,0.3-0.2,0.3-0.4
		c0-5.7,0-11.3,0-17c0-0.2-0.1-0.4-0.3-0.4c-0.4-0.2-0.7-0.4-1.1-0.5c-0.5-0.2-0.7-0.7-0.5-1.2c0.2-0.4,0.7-0.6,1.2-0.4
		c0.4,0.2,0.7,0.4,1.1,0.5c0.2,0.1,0.4,0.1,0.6-0.1c0.4-0.4,0.8-0.9,1.3-1.3c0.7-0.7,1.1-1.6,1.3-2.6c0.2-1.2,0.1-2.5,0.1-3.7
		c0-0.2-0.1-0.2-0.2-0.4c-1.2-1.4-2.4-2.9-3.6-4.4c-0.2-0.3-0.5-0.4-1-0.4c-1.1,0-2.2,0-3.4,0c-0.5,0-0.8,0.2-1,0.6
		c-1.6,3.4-3.1,6.7-4.6,10.1c-0.4,0.6-0.5,1.3-0.5,1.9C97.5,42.1,97.5,45.7,97.5,49.3z"/>
	<path class="st5" d="M155.6,50c-0.1,7.3-2.9,14.3-8.6,20.2c-3.8,4-8.5,6.7-13.8,8c-3.2,0.8-6.5,1.1-9.8,0.8
		c-3.6-0.3-7.1-1.2-10.4-2.6c-0.4-0.2-0.7-0.4-0.7-0.9c-0.1-0.3,0-0.6,0.3-0.8c0.3-0.2,0.6-0.3,1-0.1c3.2,1.6,6.6,2.4,10.2,2.6
		c6.1,0.4,11.7-1,16.8-4.2c6.4-4.1,10.7-9.8,12.5-17.2c2.2-9.5,0.1-18.2-6.4-25.6c-4.1-4.7-9.4-7.7-15.6-8.8c-5-1-10-0.6-14.8,1.2
		c-0.7,0.3-1.4,0.6-2.2,0.9c-0.7,0.3-1.1,0.1-1.4-0.5c-0.2-0.5,0.1-1,0.6-1.3c1.8-0.8,3.7-1.4,5.6-1.9c3.4-0.7,6.8-0.9,10.2-0.5
		c3.9,0.4,7.6,1.6,11.1,3.6c6.1,3.4,10.5,8.4,13.1,14.9C154.9,41.6,155.6,45.2,155.6,50z"/>
	<path class="st5" d="M125.8,34.2c-2.6,0-4.8,0.5-7,1.5c-0.1,0-0.1,0.1-0.2,0.1c-0.6,0.2-1.1,0.1-1.4-0.3c-0.2-0.4,0.1-1.1,0.6-1.4
		c1.4-0.7,2.8-1.2,4.4-1.6c8.9-1.8,17.8,3.8,19.8,12.7c1.3,5.9-0.2,11-4.3,15.5c-2.6,2.8-5.8,4.6-9.5,5.2c-3.5,0.5-6.8,0-10-1.6
		c-0.2-0.1-0.3-0.2-0.5-0.2c-0.5-0.1-0.6-0.8-0.4-1.2c0.2-0.5,0.7-0.6,1.2-0.4c2.1,1,4.3,1.7,6.7,1.7c6,0.1,10.7-2.5,13.6-7.8
		c4.7-8.5-0.1-19.3-9.6-21.7c-0.5-0.1-1.1-0.2-1.7-0.3C127,34.3,126.3,34.2,125.8,34.2z"/>
	<path class="st5" d="M125.7,53.8c-2.7-0.1-4.7-2.1-4.7-4.7c0-2.5,2.2-4.5,4.8-4.5c2.5,0.1,4.6,2.2,4.6,4.7
		C130.3,51.8,128.2,53.8,125.7,53.8z M122.8,49.3c0,1.6,1.3,2.9,2.9,2.8c1.6,0,2.8-1.3,2.8-2.8c0-1.7-1.3-3-2.8-3
		C124.1,46.4,122.8,47.8,122.8,49.3z"/>
	<path class="st5" d="M140.7,33.4c-1.2,0-2.3,0-3.5,0c-0.8,0-1.4-0.8-1-1.4c0.2-0.4,0.6-0.5,1.1-0.5c2.3,0,4.7,0,7,0
		c0.2,0,0.4,0,0.5,0.1c0.4,0.1,0.5,0.4,0.7,0.7c0.1,0.7-0.2,1.1-0.8,1.2c-0.1,0-0.2,0-0.4,0C142.9,33.4,141.8,33.4,140.7,33.4z"/>
	<path class="st5" d="M129.3,69.3c0,0.2-0.1,0.5-0.4,0.7c-1.6,1.6-3.2,3.2-4.9,4.9c-0.2,0.2-0.4,0.5-0.8,0.5
		c-0.4-0.1-0.7-0.3-0.8-0.7c-0.1-0.4-0.1-0.7,0.2-1c0.2-0.2,0.4-0.4,0.5-0.5c1.4-1.4,2.9-2.9,4.4-4.4c0.1-0.1,0.1-0.1,0.2-0.2
		c0.3-0.3,0.6-0.4,1-0.2C129.1,68.5,129.3,68.8,129.3,69.3z"/>
	<path class="st5" d="M121.2,30c-0.5,0.1-0.7-0.2-0.9-0.6c-0.2-0.4,0-0.7,0.3-1c1.3-1.3,2.6-2.6,3.9-3.9c0.3-0.3,0.5-0.5,0.8-0.8
		c0.7-0.7,1.1-0.7,1.6-0.2c0.4,0.4,0.3,1-0.3,1.6c-1.6,1.5-3.1,3-4.6,4.6C121.8,29.8,121.6,30.1,121.2,30z"/>
	<path class="st5" d="M150.4,52c-0.2,0-0.4-0.1-0.5-0.2c-1.7-1.7-3.4-3.4-5.2-5c-0.6-0.6-0.4-1.4,0.4-1.6c0.4-0.1,0.7,0.1,1,0.4
		c0.9,0.9,1.7,1.7,2.6,2.6c0.8,0.8,1.6,1.6,2.3,2.3c0.2,0.3,0.4,0.6,0.2,1C151.2,51.8,150.9,52.1,150.4,52z"/>
	<path class="st5" d="M140.8,65.7c0-1.1,0-2.2,0-3.2c0-0.5,0.4-1,0.9-1c0.5-0.1,0.8,0.2,0.9,0.7c0,0.1,0.1,0.2,0.1,0.4
		c0,2.1,0,4.2,0,6.3c0,0.8-0.7,1.2-1.4,0.9c-0.4-0.2-0.4-0.4-0.4-0.8C140.8,67.9,140.8,66.8,140.8,65.7z"/>
	<path class="st5" d="M127.5,58.6c0,1-0.8,1.9-1.8,2c-1,0-1.9-0.9-1.9-2s0.8-1.9,1.9-1.9C126.7,56.6,127.5,57.5,127.5,58.6z"/>
	<path class="st5" d="M115.5,51.2c-1,0-1.9-0.9-1.9-2s0.8-1.9,1.9-1.9c1,0,1.8,0.9,1.8,2C117.3,50.3,116.4,51.2,115.5,51.2z"/>
	<path class="st5" d="M133.2,49.1c0-1.1,0.8-1.9,2-1.9c1,0,1.8,0.9,1.8,2c0,1-0.9,1.9-1.8,1.9C134.1,51.2,133.2,50.3,133.2,49.1z"/>
	<path class="st5" d="M127.5,40c0,1-0.8,1.8-1.8,1.8c-1.1,0-2-0.8-2-1.8c0-1.1,0.8-1.9,1.9-2C126.7,38,127.5,38.8,127.5,40z"/>
</g>
<g id="test_drive">
	<path class="st5" d="M49.7,20.1c16.6,0,30.2,13.5,30,30.3c-0.2,16.4-13.6,29.9-30.4,29.7C33,79.9,19.5,66.4,19.7,49.7
		C19.9,33.4,33.3,20.1,49.7,20.1z M49.7,78.3c15.6,0,28.2-12.6,28.2-28.1C78,34.6,65.3,21.9,49.8,21.9C34.2,21.8,21.5,34.5,21.5,50
		C21.4,65.7,34.1,78.3,49.7,78.3z"/>
	<path class="st5" d="M49.6,28.1c10.5,0,19.5,7.2,21.7,17.4c0.3,1.5,0.5,3,0.5,4.5c0,0.6-0.4,1-0.9,1S70,50.6,70,50
		c0-1.7-0.2-3.5-0.7-5.2c-0.1-0.2-0.2-0.3-0.4-0.3c-3.2-0.4-6.5-0.8-9.7-1.1c-2.2-0.2-4.4-0.3-6.6-0.4c-3.5-0.1-7,0-10.5,0.2
		c-3.3,0.2-6.6,0.5-9.9,1c-0.8,0.1-1.6,0.2-2.4,0.3s-1.3-0.5-1-1.2c2.8-7.8,8.1-12.8,16.2-14.8c0.7-0.2,1.4-0.3,2.1-0.4
		C47.9,28.1,48.8,28,49.6,28.1z M68.6,42.7c-2.9-7.6-10.3-13.1-19.3-12.9c-9.3,0.2-16,6.3-18.5,12.9C43.4,40.8,56,40.8,68.6,42.7z"
		/>
	<path class="st5" d="M45.3,66c0,1.5,0,2.9,0,4.4c0,0.6-0.3,0.9-0.7,1c-0.2,0-0.4,0-0.6-0.1c-7.4-2.1-12.4-6.8-15.1-14
		c-0.6-1.7-1-3.4-1.1-5.2c0-0.4,0-0.8,0.4-1c0.3-0.2,0.6-0.2,1,0.1c0.3,0.2,0.4,0.5,0.4,0.8c0.1,0.7,0.2,1.4,0.3,2.1
		c0,0.2,0.1,0.3,0.4,0.3c2.4,0,4.8,0,7.2,0c3.6,0,6.7,2.3,7.6,5.8c0.2,0.7,0.3,1.4,0.3,2.2C45.3,63.6,45.3,64.8,45.3,66z M30.4,56.3
		c0,0.1,0,0.1,0,0.2c1,3.1,2.7,5.8,5,8c2.2,2.2,4.8,3.8,7.8,4.8c0.3,0.1,0.3,0.1,0.3-0.2c0-2.2,0-4.5,0-6.7c0-0.3,0-0.6-0.1-0.9
		c-0.3-2.8-2.8-5.1-5.6-5.2C35.3,56.2,32.9,56.3,30.4,56.3C30.4,56.3,30.5,56.3,30.4,56.3z"/>
	<path class="st5" d="M54.1,65.7c0-1.2-0.1-2.6,0-4.1c0.2-3.4,2.9-6.3,6.2-7c0.6-0.1,1.2-0.2,1.9-0.2c2.6,0,5.2,0,7.8,0
		c0.3,0,0.6,0,0.8,0.2c0.3,0.3,0.4,0.6,0.3,1c-0.6,2.2-1.5,4.3-2.8,6.3c-3.1,4.7-7.4,7.9-12.8,9.4c-0.8,0.2-1.3-0.1-1.3-1
		C54.1,68.9,54.1,67.5,54.1,65.7z M69,56.3c-0.1,0-0.3,0-0.4,0c-2.2,0-4.5,0-6.7,0c-0.3,0-0.6,0-0.9,0.1c-2.9,0.4-5.2,3-5.2,5.9
		c0,2.3,0,4.6,0,6.9c0,0.3,0,0.3,0.3,0.2c5.3-1.9,9.3-5.3,11.8-10.4C68.4,58.1,68.7,57.2,69,56.3z"/>
	<path class="st5" d="M49.7,54.9c-2.7,0-4.8-2.2-4.8-4.8c0-2.7,2.2-4.9,4.8-4.9c2.7,0,4.9,2.2,4.8,4.9
		C54.5,52.8,52.4,54.9,49.7,54.9z M49.7,53.2c1.7,0,3.1-1.4,3.1-3.1c0-1.7-1.4-3.1-3.1-3.1s-3.1,1.4-3.1,3.1
		C46.6,51.8,48,53.2,49.7,53.2z"/>
	<path class="st5" d="M28.7,46.6c0.5,0,0.9,0.4,0.9,0.9c0,0.6-0.4,1-0.9,1s-0.9-0.4-0.9-0.9C27.8,47,28.2,46.6,28.7,46.6z"/>
</g>
<g id="truck">
	<path class="st1" d="M44.7,100.2c13.8,0,25,11.2,25,25s-11.2,25-25,25s-25-11.2-25-25S30.9,100.2,44.7,100.2z"/>
	<path class="st2" d="M68.5,113.5c-1.3,0-2.3-1.1-2.3-2.3c0-0.4-0.3-0.7-0.7-0.7s-0.7,0.3-0.7,0.7c0,1.3-1.1,2.3-2.3,2.3
		c-0.4,0-0.7,0.3-0.7,0.7c0,0.4,0.3,0.7,0.7,0.7c1.3,0,2.3,1.1,2.3,2.3c0,0.4,0.3,0.7,0.7,0.7s0.7-0.3,0.7-0.7
		c0-1.3,1.1-2.3,2.3-2.3c0.4,0,0.7-0.3,0.7-0.7S68.9,113.5,68.5,113.5z M65.4,115c-0.2-0.3-0.5-0.6-0.8-0.8c0.3-0.2,0.6-0.5,0.8-0.8
		c0.2,0.3,0.5,0.6,0.8,0.8C65.9,114.4,65.6,114.7,65.4,115z"/>
	<path class="st2" d="M27.1,113.5c-1.3,0-2.3-1.1-2.3-2.3c0-0.4-0.3-0.7-0.7-0.7c-0.4,0-0.7,0.3-0.7,0.7c0,1.3-1.1,2.3-2.3,2.3
		c-0.4,0-0.7,0.3-0.7,0.7c0,0.4,0.3,0.7,0.7,0.7c1.3,0,2.3,1.1,2.3,2.3c0,0.4,0.3,0.7,0.7,0.7c0.4,0,0.6-0.3,0.6-0.7
		c0-1.3,1.1-2.3,2.3-2.3c0.4,0,0.7-0.3,0.7-0.7C27.8,113.8,27.5,113.5,27.1,113.5z M24,115c-0.2-0.3-0.5-0.6-0.8-0.8
		c0.3-0.2,0.6-0.5,0.8-0.8c0.2,0.3,0.5,0.6,0.8,0.8C24.5,114.4,24.2,114.7,24,115z"/>
	<path class="st2" d="M48.5,104.3c-1.7,0-3.1-1.4-3.1-3.1c0-0.4-0.3-0.7-0.7-0.7s-0.7,0.3-0.7,0.7c0,1.7-1.4,3.1-3.1,3.1
		c-0.4,0-0.7,0.3-0.7,0.7s0.3,0.7,0.7,0.7c1.7,0,3.1,1.4,3.1,3.1c0,0.4,0.3,0.7,0.7,0.7s0.7-0.3,0.7-0.7c0-1.7,1.4-3.1,3.1-3.1
		c0.4,0,0.7-0.3,0.7-0.7S48.9,104.3,48.5,104.3z M44.7,106.4c-0.4-0.6-0.8-1-1.4-1.4c0.6-0.4,1-0.8,1.4-1.4c0.4,0.6,0.8,1,1.4,1.4
		C45.5,105.3,45.1,105.8,44.7,106.4z"/>
	<path class="st10" d="M34,121.5h24c0,0,0.8-2.1,0-4c-0.7-1.6-3-3-3-3H36c0,0-1.5,0.3-2,2C33.5,118.3,34,121.5,34,121.5z"/>
	<path class="st11" d="M58.6,148.4c-0.3,0-0.5,0-0.8,0c-0.1,0-0.1-0.1-0.2-0.1c-1.5-0.3-2.5-1.3-2.8-2.8c-0.1-0.6,0-1.1,0-1.7
		c0-0.3-0.1-0.5-0.4-0.5c-4,0-8,0-11.9,0c-2.4,0-4.8,0-7.2,0c-0.3,0-0.4,0.1-0.4,0.4c0,0.4,0,0.8,0,1.2c0,1.6-1.1,2.9-2.6,3.2
		c-0.1,0-0.3,0-0.4,0.1c-0.3,0-0.5,0-0.8,0c0-0.1-0.1-0.1-0.2-0.1c-1.7-0.4-2.7-1.6-2.7-3.3c0-0.4,0-0.8,0-1.2
		c0-0.3-0.1-0.3-0.3-0.3c-1.7-0.1-2.9-1.5-2.8-3.2c0.1-1.6,0.3-3.1,0.5-4.6c0.1-1.2,0.2-2.3,0.4-3.5c0-0.2,0.1-0.3-0.2-0.3
		c-0.4,0-0.7-0.2-0.9-0.6c0-7.4,0-14.7,0-22.1c0.1-0.3,0.4-0.5,0.6-0.6c12.9,0,25.8,0,38.8,0c0.3,0.2,0.5,0.3,0.6,0.6
		c0,7.4,0,14.7,0,22.1c-0.2,0.3-0.4,0.6-0.8,0.6c-0.3,0-0.3,0.1-0.3,0.4c0.3,2.6,0.5,5.1,0.8,7.7c0.2,1.9-0.9,3.3-2.8,3.5
		c-0.2,0-0.3,0.1-0.3,0.3c0,0.5,0,0.9,0,1.4c0,1.4-1,2.7-2.3,3.1C59,148.2,58.8,148.2,58.6,148.4z M44.8,141.7c4,0,7.9,0,11.9,0
		c1.6,0,3.1,0,4.7,0c1,0,1.6-0.6,1.5-1.6c-0.3-2.6-0.5-5.1-0.8-7.7c0-0.2-0.1-0.3-0.2-0.4c-0.5-0.4-0.9-0.8-1.4-1.2
		c-0.2-0.2-0.3-0.4-0.4-0.7c-0.1-1-0.3-1.9-0.3-2.9c0-0.4-0.2-0.5-0.5-0.5c-9.5,0-18.9,0-28.4,0c-0.2,0-0.4,0-0.6,0s-0.3,0-0.4,0.3
		c-0.1,1-0.3,2-0.4,3c0,0.3-0.2,0.5-0.4,0.7c-0.4,0.4-0.9,0.7-1.3,1.1c-0.2,0.1-0.3,0.3-0.3,0.5c-0.3,2.6-0.5,5.2-0.8,7.8
		c-0.1,0.5,0.1,1,0.5,1.3c0.3,0.2,0.7,0.3,1.1,0.3C33.9,141.7,39.4,141.7,44.8,141.7z M44.8,125c4.8,0,9.5,0,14.3,0
		c0.3,0,0.4-0.1,0.4-0.4c-0.3-1.9-0.5-3.8-0.7-5.7c-0.2-2.3-1.9-3.8-4.2-3.8c-6.5,0-13,0-19.5,0c-2.1,0-3.8,1.4-4.1,3.5
		c-0.3,2-0.5,4-0.8,6c-0.1,0.5-0.1,0.5,0.5,0.5C35.4,125,40.1,125,44.8,125z M44.8,110c-5.9,0-11.9,0-17.8,0c-0.5,0-0.5,0-0.5,0.6
		c0,6.3,0,12.6,0,18.9c0,0.1,0,0.2,0,0.4c0,0.1,0,0.1,0.1,0.2c0.5,0.3,1.3-0.1,1.4-0.7c0.5-3.6,0.9-7.2,1.3-10.8
		c0.3-2.4,2-4.4,4.4-5c0.8-0.2,1.7-0.2,2.5-0.2c0.3,0,0.3-0.1,0.3-0.3c0-0.4,0-0.9,0-1.3c0-0.5,0.4-0.9,0.8-0.9
		c0.5,0,0.8,0.4,0.8,0.9c0,0.4,0,0.8,0,1.2c0,0.3,0.1,0.4,0.4,0.4c4.1,0,8.1,0,12.2,0c0.1,0,0.3,0,0.4,0c0.2,0,0.3-0.1,0.3-0.3
		c0-0.4,0-0.8,0-1.2c0-0.6,0.3-1,0.8-1s0.8,0.4,0.8,1c0,0.4,0,0.8,0,1.2c0,0.2,0.1,0.3,0.3,0.3c0.4,0,0.8,0,1.2,0
		c3,0,5.4,2.2,5.8,5.1c0.4,3.6,0.9,7.2,1.3,10.8c0,0.3,0.2,0.5,0.4,0.7c0.3,0.2,0.7,0.1,0.9,0s0.1-0.4,0.1-0.6c0-6.3,0-12.5,0-18.8
		c0-0.6,0-0.6-0.5-0.6C56.7,110,50.8,110,44.8,110z M31.5,143.4c-0.5,0-0.9,0-1.4,0c-0.3,0-0.3,0.1-0.3,0.3c0,0.4,0,0.9,0,1.3
		c0,0.9,0.6,1.6,1.5,1.7c0.9,0.1,1.6-0.5,1.8-1.4c0.1-0.6,0-1.1,0.1-1.7c0-0.2-0.1-0.2-0.3-0.2C32.5,143.4,32,143.4,31.5,143.4z
		 M58.2,143.4c-0.5,0-1,0-1.4,0c-0.2,0-0.3,0-0.3,0.2c0,0.5,0,1.1,0,1.6c0.1,0.9,0.8,1.5,1.7,1.5s1.6-0.8,1.6-1.6c0-0.5,0-0.9,0-1.4
		c0-0.2-0.1-0.3-0.3-0.3C59.1,143.4,58.7,143.4,58.2,143.4z"/>
	<path class="st11" d="M44.8,140c-1.9,0-3.7,0-5.6,0c-0.8,0-1-0.3-1.1-1.1c0-2.2,0-4.4,0-6.6c0-1,0-2,0-3c0-0.7,0.3-1,1-1
		c2,0,3.9,0,5.9,0c1.8,0,3.6,0,5.4,0c0.8,0,1.1,0.3,1.1,1.1c0,2.1,0,4.3,0,6.4c0,1.1,0,2.1,0,3.2c0,0.7-0.3,1-1,1
		C48.6,140,46.7,140,44.8,140z M44.8,135c1.6,0,3.1,0,4.7,0c0.3,0,0.4-0.1,0.3-0.3c0-0.3,0-0.7,0-1.1c0-0.2-0.1-0.3-0.3-0.3
		c-3.1,0-6.3,0-9.4,0c-0.2,0-0.3,0.1-0.3,0.3c0,0.4,0,0.7,0,1.1c0,0.3,0.1,0.4,0.4,0.4C41.8,135,43.3,135,44.8,135z M44.8,131.7
		c1.3,0,2.5,0,3.8,0c0.4,0,0.9,0.1,1.1-0.1c0.3-0.2,0-0.8,0.1-1.2s-0.1-0.5-0.5-0.5c-2.7,0-5.5,0-8.2,0c-0.4,0-1-0.2-1.2,0.1
		c-0.3,0.3,0,0.8-0.1,1.2c0,0.3,0.1,0.4,0.4,0.4C41.8,131.7,43.3,131.7,44.8,131.7z M44.8,136.7c-1.2,0-2.5,0-3.7,0
		c-0.4,0-0.9-0.1-1.2,0.1c-0.3,0.2,0,0.8-0.1,1.2c0,0.3,0.1,0.4,0.4,0.4c2.8,0,5.5,0,8.3,0c0.4,0,1,0.1,1.2-0.1
		c0.3-0.2,0-0.8,0.1-1.2c0-0.3-0.1-0.4-0.4-0.4C47.9,136.7,46.4,136.7,44.8,136.7z"/>
	<path class="st11" d="M33.2,138.4c-1.8,0.1-3.3-1.4-3.4-3.2s1.4-3.4,3.2-3.4c1.8-0.1,3.4,1.4,3.5,3.1
		C36.6,136.8,35.2,138.3,33.2,138.4z M33.2,136.7c0.9,0,1.7-0.8,1.6-1.7c0-0.9-0.8-1.7-1.7-1.6c-0.9,0-1.7,0.8-1.7,1.7
		C31.5,136,32.3,136.7,33.2,136.7z"/>
	<path class="st11" d="M56.5,138.4c-1.8,0-3.3-1.5-3.3-3.3c0-1.9,1.5-3.4,3.3-3.3c1.8,0,3.3,1.5,3.3,3.3
		C59.9,136.9,58.4,138.4,56.5,138.4z M56.5,136.7c0.9,0,1.7-0.7,1.7-1.7c0-0.9-0.8-1.7-1.7-1.7s-1.7,0.7-1.7,1.7
		S55.6,136.7,56.5,136.7z"/>
</g>
<path class="st12" d="M114.8,169.6l-1.8-1.5V165c0-0.3-0.2-0.5-0.5-0.5h-2c-0.3,0-0.5,0.2-0.5,0.5v0.8l-2.7-2.2
	c-0.2-0.1-0.4-0.1-0.6,0l-7.5,6c-0.2,0.1-0.2,0.4-0.2,0.6c0.1,0.2,0.3,0.3,0.5,0.3h1.5v8.5c0,0.3,0.2,0.5,0.5,0.5h11
	c0.3,0,0.5-0.2,0.5-0.5v-8.5h1.5c0.2,0,0.4-0.1,0.5-0.3C115,170,115,169.8,114.8,169.6z M111,166.5v-1h1v1.9L111,166.5
	C110.9,166.5,111,166.5,111,166.5z M106,178.5v-4h2v4H106z M112.5,169.5c-0.3,0-0.5,0.2-0.5,0.5v8.5h-3V174c0-0.3-0.2-0.5-0.5-0.5
	h-3c-0.3,0-0.5,0.2-0.5,0.5v4.5h-3V170c0-0.3-0.2-0.5-0.5-0.5h-0.6l6.1-4.9l6.1,4.9H112.5z"/>
<path class="st13" d="M139.2,179.8c-2.9,0-5.5-1.5-6.9-4s-1.4-5.5,0-8c1.4-2.5,4.1-4,6.9-4c4.4,0,8,3.6,8,8
	C147.2,176.3,143.6,179.8,139.2,179.8z M139.2,178.1c2.2,0,4.3-1.2,5.4-3.1c1.1-1.9,1.1-4.3,0-6.2c-1.1-1.9-3.2-3.1-5.4-3.1
	c-3.4,0-6.2,2.8-6.2,6.2S135.7,178.1,139.2,178.1z M142.7,171.8h-2.7v-4.4h-1.8v6.2h4.4V171.8z"/>
<path class="st7" d="M200.3,166.8c0.2,0.1,0.3,0.2,0.1,0.4c-0.5,0.5-0.9,1.1-1.3,1.7c-1,1.3-1.9,2.7-2.7,4.2
	c-0.6,1.1-1.1,2.3-1.6,3.5c-0.1,0.2-0.3,0.2-0.4,0.2c-0.2,0-0.4,0-0.6,0c-0.1,0-0.2-0.1-0.3-0.2c-0.3-0.5-0.7-1-1.1-1.4
	c-0.5-0.6-1-1.1-1.6-1.6c-0.2-0.1-0.3-0.3-0.4-0.4c0,0,0-0.1,0-0.1c0.1-0.2,0.4-0.3,0.6-0.3c0.3-0.1,0.5,0.1,0.8,0.3
	c0.8,0.8,1.5,1.6,2.1,2.5c0,0,0.1,0.1,0.1,0.1c0.1-0.3,0.2-0.6,0.4-0.9c1.1-2.6,2.5-5,4.4-7.3c0.3-0.3,0.6-0.5,1-0.6c0,0,0,0,0,0
	C200.1,166.8,200.2,166.8,200.3,166.8z"/>
<path class="st13" d="M175.7,165.4h-3.2v-1.6h-1.6v1.6h-4.8v-1.6h-1.6v1.6h-3.2c-0.4,0-0.8,0.4-0.8,0.8V179c0,0.4,0.4,0.8,0.8,0.8
	h14.4c0.4,0,0.8-0.4,0.8-0.8v-12.8C176.5,165.8,176.1,165.4,175.7,165.4z M162.1,171.8h12.8v6.4h-12.8V171.8z M170.9,167h-4.8v1.6
	h-1.6V167h-2.4v3.2h12.8V167h-2.4v1.6h-1.6V167z M165.3,175v-1.6h-1.6v1.6H165.3z M167.7,173.4h1.6v1.6h-1.6V173.4z M173.3,175v-1.6
	h-1.6v1.6H173.3z"/>
</svg>
